<?xml version="1.0" encoding="iso-8859-1"?>
<!-- Generator: Adobe Illustrator 19.0.0, SVG Export Plug-In . SVG Version: 6.00 Build 0)  -->
<svg xmlns="http://www.w3.org/2000/svg" xmlns:xlink="http://www.w3.org/1999/xlink" version="1.1" id="Capa_1" x="0px" y="0px" viewBox="0 0 497.137 497.137" style="enable-background:new 0 0 497.137 497.137;" xml:space="preserve" width="512px" height="512px">
<g>
	<g>
		<g>
			<path d="M184.471,422.498c-13.553,0-24.847,11.294-24.847,24.847c0,13.553,11.294,24.847,24.847,24.847     s24.847-11.294,24.847-24.847C209.318,433.792,198.023,422.498,184.471,422.498z M184.471,457.133     c-5.271,0-9.788-4.518-9.788-9.788c0-5.271,4.518-9.788,9.788-9.788s9.788,4.518,9.788,9.788     C194.259,453.368,189.741,457.133,184.471,457.133z" fill="rgba(255, 255, 255,1)"/>
			<path d="M144.565,44.521h80.565c4.518,0,7.529-3.012,7.529-7.529s-3.012-7.529-7.529-7.529h-80.565     c-4.518,0-7.529,3.012-7.529,7.529S140.8,44.521,144.565,44.521z" fill="rgba(255, 255, 255,1)"/>
			<path d="M496.941,308.804L438.965,58.827c-0.753-3.012-3.012-5.271-6.024-6.024c-3.012-0.753-6.023,0.753-7.529,3.012     c-18.071,24.094-36.894,45.929-55.718,63.247V27.957c0-15.059-12.8-27.859-27.859-27.859H27.859C12.8,0.098,0,12.898,0,27.957     V469.18c0,15.059,12.8,27.859,27.859,27.859h313.977c15.059,0,27.859-12.8,27.859-27.859V270.404     c35.388,7.529,74.541,23.341,115.953,46.682c2.259,1.506,6.024,1.506,8.282-0.753     C496.188,314.827,497.694,311.816,496.941,308.804z M355.388,469.18h-0.753c0,6.776-6.023,12.8-12.8,12.8H27.859     c-6.776,0-12.8-6.023-12.8-12.8V27.957c0-6.776,6.023-12.8,12.8-12.8h313.977c6.776,0,12.8,6.023,12.8,12.8v104.659     c-11.294,9.788-23.341,18.824-35.388,26.353V70.121c0-4.518-3.012-7.529-7.529-7.529H57.976c-4.518,0-7.529,3.012-7.529,7.529     c0,100.894,0,232.659,0,332.047c0,4.518,3.012,7.529,7.529,7.529h254.494c4.518,0,7.529-3.012,7.529-7.529V265.133     c11.294,0,22.588,0.753,35.388,2.259V469.18z M206.306,271.91l-13.553-57.224l81.318-18.071     c6.776,28.612,3.012,14.306,13.553,57.224C256,260.616,233.412,265.886,206.306,271.91z M249.224,277.933l15.059,64l-25.6,5.271     l-15.059-64L249.224,277.933z M182.965,201.133c-2.259,0.753-3.765,1.506-4.518,3.012c-0.753,1.506-1.506,3.765-0.753,6.023     l16.565,72.282c0.753,3.765,3.765,6.024,7.529,6.024c0.753,0,0.753,0,1.506,0l6.776-1.506l16.565,71.529     c0.753,3.765,3.765,6.024,7.529,6.024c0.753,0,0.753,0,1.506,0l39.906-9.035c2.259-0.753,3.765-1.506,4.518-3.012     c0.753-1.506,1.506-3.765,0.753-6.023l-16.565-71.529c38.4-8.282,33.129-7.529,40.659-8.282v128H65.506v-76.8h40.659     c4.518,0,7.529-3.012,7.529-7.529c0-4.518-3.012-7.529-7.529-7.529H65.506v-31.624h55.718c4.518,0,7.529-3.012,7.529-7.529     s-3.012-7.529-7.529-7.529H65.506v-32.376h79.059c4.518,0,7.529-3.012,7.529-7.529s-3.012-7.529-7.529-7.529H65.506v-32.376     h94.118c4.518,0,7.529-3.012,7.529-7.529s-3.012-7.529-7.529-7.529H65.506V77.651h239.435v90.353     C279.341,181.557,283.106,179.298,182.965,201.133z M302.682,250.827l-13.553-58.729     c47.435-19.576,94.118-57.977,138.541-114.447l50.447,218.353C424.659,268.145,362.918,245.557,302.682,250.827z" fill="rgba(255, 255, 255,1)"/>
		</g>
	</g>
</g>
<g>
</g>
<g>
</g>
<g>
</g>
<g>
</g>
<g>
</g>
<g>
</g>
<g>
</g>
<g>
</g>
<g>
</g>
<g>
</g>
<g>
</g>
<g>
</g>
<g>
</g>
<g>
</g>
<g>
</g>
</svg>
