<?xml version="1.0" encoding="iso-8859-1"?>
<!-- Generator: Adobe Illustrator 19.0.0, SVG Export Plug-In . SVG Version: 6.00 Build 0)  -->
<svg xmlns="http://www.w3.org/2000/svg" xmlns:xlink="http://www.w3.org/1999/xlink" version="1.1" id="Capa_1" x="0px" y="0px" viewBox="0 0 512 512" style="enable-background:new 0 0 512 512;" xml:space="preserve" width="512px" height="512px">
<g>
	<g>
		<circle class="cd1" cx="85.971" cy="86.167" r="36.369" fill="rgba(255, 255, 255,1)"/>
	</g>
</g>
<g>
	<g>
		<circle class="cd2" cx="309.77" cy="86.167" r="36.369" fill="rgba(255, 255, 255,1)"/>
	</g>
</g>
<g>
	<g>
		<path class="cd3" d="M394.378,433.707l-34.246-90.846l-3.698-57.942c0-5.266,0-120.243,0-125.518c0-12.577-8.803-24.568-23.582-24.568h-39.06    c-12.35,0-22.506,10.922-22.506,24.568v42.884l7.471-0.631l33.296-35.209l-26.777,48.746l-60.486,5.106    c-9.644,0.814-16.827,9.288-16.01,18.962c0.816,9.67,9.32,16.827,18.962,16.01l69.862-5.897    c5.856-0.495,11.075-3.886,13.905-9.037l29.569-53.83c-17.501,62.823-16.156,58.573-17.266,60.591    c-5.107,9.293-14.463,15.374-25.028,16.266c-1.467,0.123-26.939,2.274-28.275,2.386l-11.134,78.642    c-0.139,0.978-0.208,1.964-0.208,2.951v93.795c0,11.63,9.428,21.058,21.058,21.058s21.058-9.428,21.058-21.058v-92.312    c1.096-7.743,8.01-56.576,8.972-63.372h4.081c0.001,1.554-0.387-5.009,3.967,63.229c0.133,2.084,0.574,4.134,1.311,6.087    l35.359,93.795c4.106,10.889,16.258,16.377,27.133,12.276C392.984,456.737,398.481,444.589,394.378,433.707z" fill="rgba(255, 255, 255,1)"/>
	</g>
</g>
<g>
	<g>
		<circle class="cd4" cx="458.121" cy="86.167" r="36.369" fill="rgba(255, 255, 255,1)"/>
	</g>
</g>
<g>
	<g>
		<path class="cd5" d="M511.804,438.286l-11.728-85.797c5.095-71.873,4.675-65.477,4.677-67.034h0.03V159.401    c0-12.577-8.803-24.568-23.582-24.568h-39.06c-12.356,0-22.507,10.929-22.507,24.568v79.049l18.541-13.212l10.697-47.264    l1.813,55.588l-49.435,35.225c-7.892,5.624-9.733,16.579-4.108,24.474c5.557,7.801,16.506,9.785,24.474,4.108l57.098-40.685    c4.934-3.517,7.539-9.199,7.356-14.863l-2.002-61.384l15.556,57.731c1.772,6.575-0.436,21.164-12.765,29.949l-24.33,17.336h0.076    l-4.695,66.234c-0.103,1.448-0.056,2.903,0.142,4.341l12.023,87.961c1.575,11.525,12.195,19.588,23.716,18.012    C505.314,460.427,513.379,449.809,511.804,438.286z" fill="rgba(255, 255, 255,1)"/>
	</g>
</g>
<g>
	<g>
		<path class="cd6" d="M429.764,308.803c-5.097,3.632-11.209,5.745-17.83,5.847l-4.211,29.742c-0.139,0.978-0.208,1.964-0.208,2.951    c0,10.24,0,83.642,0,93.795c0,11.454,9.314,21.058,21.058,21.058c11.63,0,21.058-9.428,21.058-21.058v-92.311l8.531-60.26    L429.764,308.803z" fill="rgba(255, 255, 255,1)"/>
	</g>
</g>
<g>
	<g>
		<path class="cd7" d="M217.176,191.09h-77.764c0.097,10.37,4.328,20.279,11.815,27.543l-40.761-3.44l-26.777-48.747l33.296,35.209l7.471,0.631    v-42.884c0-13.682-10.189-24.568-22.506-24.568H62.888c-14.736,0-23.582,11.961-23.582,24.568c0,5.287,0,120.272,0,125.515    l-3.698,57.945L1.359,433.711c-4.103,10.882,1.394,23.03,12.276,27.133c10.881,4.101,23.03-1.393,27.133-12.276l35.359-93.795    c0.736-1.953,1.178-4.003,1.311-6.087c4.311-67.559,3.966-61.653,3.967-63.23h4.081c0.963,6.801,7.875,55.631,8.972,63.372v92.311    c0,11.63,9.428,21.058,21.058,21.058c11.63,0,21.058-9.428,21.058-21.058v-93.795c0-0.988-0.07-1.974-0.208-2.951l-11.133-78.642    c-1.325-0.111-26.798-2.262-28.276-2.386c-10.566-0.892-19.922-6.973-25.028-16.266c-1.119-2.035,0.196,2.093-17.266-60.591    l29.569,53.83c2.83,5.151,8.049,8.543,13.905,9.037l69.862,5.897c9.676,0.819,18.149-6.369,18.962-16.01    c0.307-3.645-0.521-7.153-2.257-10.182C203.017,226.038,216.997,210.21,217.176,191.09z" fill="rgba(255, 255, 255,1)"/>
	</g>
</g>
<g>
</g>
<g>
</g>
<g>
</g>
<g>
</g>
<g>
</g>
<g>
</g>
<g>
</g>
<g>
</g>
<g>
</g>
<g>
</g>
<g>
</g>
<g>
</g>
<g>
</g>
<g>
</g>
<g>
</g>
</svg>
