<svg viewBox="0 0 900 200" version="1.1" xmlns="http://www.w3.org/2000/svg" xmlns:xlink="http://www.w3.org/1999/xlink">

<path d="M669,-59c0,0,-26,0,-40,14c0,0,-15,14,-15,34c0,0,0,9,3,26l11,46c0,0,12,60,52,197c0,0,6,25,33,123c0,0,26,99,37,157c0,0,3,21,3,27c0,0,0,45,-28,81c0,0,-28,37,-73,58c0,0,-45,22,-96,22c0,0,-140,0,-224,-100c0,0,-84,-100,-117,-227c0,0,-33,-127,-33,-219c0,0,0,-10,4,-19c0,0,5,-8,13,-8c0,0,13,0,23,20c0,0,53,116,93,194c0,0,41,78,92,136c0,0,51,59,103,59c0,0,43,0,83,-33c0,0,40,-32,41,-69c0,0,-3,-11,-21,-19c0,0,-17,-9,-52,-19c0,0,-40,-13,-54,-20c0,0,-52,-67,-117,-199c0,0,-43,-84,-73,-130C317,73,287,28,252,5c0,0,-29,-18,-87,-18c0,0,-90,0,-121,55C44,42,14,98,14,205c0,0,0,96,40,246c0,0,41,149,164,278c0,0,124,128,350,128c0,0,89,0,171,-37c0,0,81,-36,132,-107c0,0,50,-71,50,-168c0,0,0,-4,-10,-65l-5,-31L796,17c0,0,-20,-37,-44,-56c0,0,-25,-20,-83,-20Z"
class = "char_1" style="stroke: none;fill: none; stroke-width:0.5px" transform="translate(0,150) scale(0.1,-0.1)" />

<path d="M-98,963c0,0,-43,0,-43,91c0,0,0,37,15,116c0,0,15,80,43,143c0,0,27,64,66,64c0,0,32,0,63,-20c0,0,30,-19,33,-46c0,0,0,-6,-3,-13c0,0,-3,-7,-4,-13c0,0,-9,-34,-24,-71c0,0,-14,-38,-20,-51c0,0,-29,-68,-45,-126c0,0,-2,-4,-6,-25c0,0,-5,-20,-23,-35c0,0,-19,-14,-52,-14Z"
class = "char_2" style="stroke: none;fill: none; stroke-width:0.5px" transform="translate(75,150) scale(0.1,-0.1)" />

<path d="M400,-42c0,0,-49,0,-49,47c0,0,0,9,3,27l28,118c0,0,15,64,28,115c0,0,13,51,22,89c0,0,48,191,63,263c0,0,2,6,2,16c0,0,0,42,-41,69c0,0,-40,27,-85,27c0,0,-93,0,-138,-54c0,0,-45,-55,-50,-143c0,0,-59,6,-98,27c0,0,-39,22,-39,57c0,0,0,108,88,176c0,0,88,68,249,68c0,0,100,0,164,-39c0,0,64,-39,93,-95c0,0,29,-55,29,-107c0,0,0,-16,-1,-22c0,0,-16,-99,-72,-322c0,0,-6,-23,-27,-104c0,0,-21,-81,-30,-137c0,0,-18,-36,-47,-56c0,0,-29,-20,-92,-20Z"
class = "char_3" style="stroke: none;fill: none; stroke-width:0.5px" transform="translate(100,150) scale(0.1,-0.1)" />

<path d="M338,-22c0,0,-101,0,-175,35c0,0,-73,36,-112,96c0,0,-39,61,-39,132c0,0,0,80,61,142c0,0,61,63,178,101c0,0,-52,25,-93,71c0,0,-40,47,-40,100c0,0,0,86,52,146c0,0,52,61,131,61c0,0,49,0,92,-21c0,0,42,-21,42,-54c0,0,0,-23,-22,-41c0,0,-22,-17,-65,-40c0,0,-36,-22,-55,-35c0,0,-18,-14,-18,-31c0,0,0,-30,21,-50c0,0,22,-19,66,-42c0,0,37,-19,56,-35c0,0,19,-15,19,-36c0,0,0,-14,-17,-26c0,0,-17,-11,-59,-34c0,0,-80,-43,-126,-83c0,0,-46,-41,-46,-103c0,0,0,-54,46,-89c0,0,46,-35,129,-35c0,0,64,0,123,40c0,0,58,39,77,117l75,300l50,203c0,0,11,40,35,64c0,0,25,25,49,25c0,0,41,0,68,-17c0,0,27,-17,30,-51c0,0,-6,-24,-63,-253c0,0,-58,-232,-81,-317c0,0,-18,-67,-74,-122C653,96,597,41,515,9c0,0,-83,-31,-177,-31Z"
class = "char_4" style="stroke: none;fill: none; stroke-width:0.5px" transform="translate(170,150) scale(0.1,-0.1)" />

<path d="M310,-25c0,0,-78,0,-124,33c0,0,-45,35,-45,93c0,0,0,46,32,75c0,0,33,30,81,32c0,0,1,-64,23,-85c0,0,21,-21,53,-21c0,0,41,0,91,87c0,0,50,86,85,203c0,0,35,117,35,196c0,0,0,60,-32,100c0,0,-32,41,-129,41c0,0,-87,0,-144,-54c0,0,-57,-55,-63,-148c0,0,-60,0,-97,28c0,0,-36,29,-36,67c0,0,0,69,45,123c0,0,45,54,128,85c0,0,83,30,190,30c0,0,149,0,225,-76c0,0,76,-77,76,-193c0,0,0,-117,-43,-263C661,328,617,183,528,79C528,79,438,-25,310,-25Z"
class = "char_5" style="stroke: none;fill: none; stroke-width:0.5px" transform="translate(270,150) scale(0.1,-0.1)" />

<path d="M-355,929c0,0,-89,0,-173,20c0,0,-85,20,-139,58c0,0,-55,38,-55,91c0,0,0,59,56,104c0,0,56,46,135,71c0,0,78,26,139,26c0,0,98,0,167,-33c0,0,69,-33,134,-108c0,0,25,-27,52,-46c0,0,28,-18,47,-26c0,0,9,-4,13,-19c0,0,3,-14,3,-27c0,0,0,-27,-25,-39c0,0,-25,-13,-58,-13c0,0,-26,0,-52,18c0,0,-25,18,-70,57c0,0,-61,55,-109,84c0,0,-48,29,-109,29c0,0,-49,0,-100,-17c0,0,-52,-18,-52,-50c0,0,0,-24,37,-42c0,0,37,-17,85,-26c0,0,48,-8,80,-8l73,1c0,0,20,2,51,2c0,0,34,0,34,-18c0,0,0,-28,-29,-48c0,0,-28,-20,-67,-30c0,0,-39,-11,-68,-11Z"
class = "char_6" style="stroke: none;fill: none; stroke-width:0.5px" transform="translate(350,150) scale(0.1,-0.1)" />

<path d="M674,-59c0,0,-49,0,-49,48c0,0,0,9,3,26l11,46l13,61c0,0,71,300,78,416v12c0,0,0,72,-54,118c0,0,-54,47,-135,47c0,0,-141,0,-225,-98c0,0,-84,-98,-117,-221c0,0,-32,-124,-32,-216c0,0,0,-10,4,-19c0,0,5,-8,12,-8c0,0,14,0,23,20c0,0,54,116,94,194c0,0,41,78,92,136c0,0,51,59,103,59c0,0,43,0,83,-33c0,0,39,-32,41,-69c0,0,-3,-11,-21,-19c0,0,-17,-9,-53,-19c0,0,-39,-13,-53,-20c0,0,-31,-41,-54,-84c0,0,-24,-43,-62,-119c0,0,-40,-84,-67,-129C309,70,281,26,246,5c0,0,-29,-18,-96,-18c0,0,-90,0,-121,55C29,42,-1,98,-1,205c0,0,0,96,40,244c0,0,40,148,164,275c0,0,124,127,350,127c0,0,109,0,197,-53c0,0,66,47,142,91c0,0,77,44,136,63c0,0,34,11,64,11c0,0,29,0,53,-14c0,0,24,-14,24,-41c0,0,0,-16,-10,-26c0,0,-10,-11,-31,-25c0,0,-22,-12,-33,-20c0,0,-151,-85,-232,-157c0,0,34,-63,34,-142c0,0,0,-22,-2,-34c0,0,-23,-206,-88,-487c0,0,-20,-37,-45,-56c0,0,-26,-20,-88,-20Z"
class = "char_7" style="stroke: none;fill: none; stroke-width:0.5px" transform="translate(350,150) scale(0.1,-0.1)" />

<path d="M310,-25c0,0,-78,0,-124,33c0,0,-45,35,-45,93c0,0,0,46,32,75c0,0,33,30,81,32c0,0,1,-64,23,-85c0,0,21,-21,53,-21c0,0,41,0,91,87c0,0,50,86,85,203c0,0,35,117,35,196c0,0,0,60,-32,100c0,0,-32,41,-129,41c0,0,-87,0,-144,-54c0,0,-57,-55,-63,-148c0,0,-60,0,-97,28c0,0,-36,29,-36,67c0,0,0,69,45,123c0,0,45,54,128,85c0,0,83,30,190,30c0,0,149,0,225,-76c0,0,76,-77,76,-193c0,0,0,-117,-43,-263C661,328,617,183,528,79C528,79,438,-25,310,-25Z"
class = "char_8" style="stroke: none;fill: none; stroke-width:0.5px" transform="translate(450,150) scale(0.1,-0.1)" />

<path d="M194,-26c0,0,-67,0,-102,66c0,0,-35,67,-35,182c0,0,0,91,12,161c0,0,12,71,30,117c0,0,17,47,46,116l22,47c0,0,-29,18,-43,44c0,0,-14,26,-20,48c0,0,-6,23,-8,30c0,0,2,34,49,55c0,0,48,20,98,20c0,0,64,0,96,-35c0,0,32,-35,32,-93c0,0,-10,-6,-46,-96c0,0,-35,-89,-64,-195c0,0,-29,-106,-29,-180c0,0,0,-44,9,-75c0,0,8,-32,28,-32c0,0,41,0,98,110c0,0,56,110,107,263c0,0,52,153,78,271c0,0,4,24,31,42c0,0,27,17,45,17c0,0,35,0,54,-17c0,0,19,-17,19,-52l-1,-16c0,0,0,-4,-3,-13c0,0,-3,-9,-6,-23c0,0,-83,-308,-83,-453V252c0,0,0,-46,11,-72c0,0,10,-26,30,-26c0,0,68,0,141,213c0,0,73,212,116,434c0,0,8,45,67,45c0,0,34,0,74,-13c0,0,39,-13,39,-29l-21,-92c0,0,-3,-21,-6,-29c0,0,-51,-219,-96,-361C963,322,917,179,840,76C840,76,762,-26,648,-26c0,0,-64,0,-105,57c0,0,-40,58,-40,143c0,0,0,99,24,219h-4c0,0,-42,-130,-98,-226C425,167,368,72,308,22c0,0,-60,-48,-114,-48Z"
class = "char_9" style="stroke: none;fill: none; stroke-width:0.5px" transform="translate(530,150) scale(0.1,-0.1)" />

<path d="M-303,978c0,0,-26,0,-56,20c0,0,-30,21,-50,49c0,0,-21,29,-21,47c0,0,0,38,14,88c0,0,14,49,37,85c0,0,23,35,47,35c0,0,56,0,93,-15c0,0,37,-14,37,-49c0,0,0,-17,-38,-71l-26,-43l9,-18c0,0,40,29,143,66c0,0,104,36,212,62c0,0,108,26,151,26c0,0,41,0,65,-12c0,0,24,-12,24,-49c0,0,0,-12,-10,-24c0,0,-10,-12,-21,-12c0,0,-49,0,-130,-26c0,0,-81,-26,-214,-77c0,0,-113,-42,-174,-62c0,0,-60,-20,-92,-20Z"
class = "char_10" style="stroke: none;fill: none; stroke-width:0.5px" transform="translate(600,150) scale(0.1,-0.1)" />

<path d="M1002,-23c0,0,-35,0,-65,21c0,0,-31,20,-74,63c0,0,-55,55,-84,70c0,0,-21,-67,-72,-110c0,0,-52,-43,-102,-43c0,0,-66,0,-101,33c0,0,-35,35,-35,87c0,0,0,75,47,124c0,0,48,48,130,55c0,0,35,90,59,178c0,0,24,87,24,174c0,0,0,28,-5,52c0,0,-50,-32,-116,-58c0,0,-66,-27,-115,-27c0,0,-32,0,-69,24c0,0,-37,25,-60,57c0,0,-37,-52,-78,-148c0,0,-42,-97,-70,-191c0,0,-28,-95,-28,-144c0,0,0,-40,20,-40c0,0,36,0,84,48c0,0,47,47,82,111c0,0,35,64,35,112c0,0,0,15,-11,40c0,0,-11,25,-16,38c0,0,12,27,47,41c0,0,34,14,74,14c0,0,29,0,46,-20c0,0,18,-20,18,-45c0,0,0,-99,-64,-219C503,274,440,154,343,71c0,0,-97,-82,-190,-82c0,0,-69,0,-97,64c0,0,-28,66,-28,152c0,0,0,75,39,224c0,0,40,149,124,269c0,0,84,121,211,121c0,0,36,0,60,-21c0,0,24,-20,48,-54c0,0,14,-23,22,-26l52,37c0,0,122,87,201,87c0,0,106,0,106,-209c0,0,0,-86,-25,-202c0,0,-24,-116,-47,-174c0,0,47,-28,80,-52c0,0,33,-25,62,-58c0,0,2,4,17,76c0,0,38,177,71,304c0,0,33,127,69,214c0,0,49,115,95,115c0,0,80,0,86,-68c0,0,-14,-13,-55,-172c0,0,-40,-158,-79,-338c0,0,-39,-180,-44,-220c0,0,-30,-81,-119,-81Z"
class = "char_11" style="stroke: none;fill: none; stroke-width:0.5px" transform="translate(630,150) scale(0.1,-0.1)" />

<path d="M98,-22c0,0,-84,0,-84,86c0,0,0,15,9,41c0,0,9,25,17,43c0,0,9,19,12,26c0,0,49,104,82,209c0,0,33,106,43,253c0,0,-33,21,-55,57c0,0,-21,36,-32,71c0,0,2,34,44,54c0,0,42,21,91,21c0,0,71,0,101,-48c0,0,30,-47,30,-148c0,0,0,-85,-35,-226c0,0,-35,-140,-86,-237c0,0,64,37,163,77c0,0,99,39,189,58c0,0,38,169,67,277c0,0,29,108,67,186c0,0,38,78,84,78c0,0,80,0,86,-68c0,0,-14,-13,-42,-113c0,0,-29,-101,-55,-217c0,0,-26,-116,-30,-154c0,0,35,-11,53,-44c0,0,17,-32,17,-77c0,0,0,-44,-20,-91c0,0,-20,-48,-60,-80c0,0,-41,-31,-102,-31c0,0,-52,0,-93,40c0,0,-41,42,-41,109c0,0,0,24,1,40c0,0,-55,-19,-194,-94C325,76,240,29,185,3c0,0,-55,-25,-87,-25Z"
class = "char_12" style="stroke: none;fill: none; stroke-width:0.5px" transform="translate(760,150) scale(0.1,-0.1)" />

<path d="M-331,953c0,0,-47,0,-77,33c0,0,-29,33,-29,79c0,0,0,76,93,132c0,0,93,56,224,85c0,0,129,29,233,29c0,0,64,0,96,-11c0,0,32,-11,32,-50c0,0,0,-12,-6,-22c0,0,-6,-10,-18,-10c0,0,-44,0,-160,-18c0,0,-116,-17,-208,-46c0,0,-92,-28,-92,-59c0,0,0,-1,16,-19c0,0,17,-19,17,-51c0,0,0,-26,-39,-49c0,0,-39,-23,-82,-23Z"
class = "char_13" style="stroke: none;fill: none; stroke-width:0.5px" transform="translate(850,150) scale(0.1,-0.1)" />

</svg>
